<?xml version="1.0" standalone="no"?>
<!DOCTYPE svg PUBLIC "-//W3C//DTD SVG 20010904//EN"
 "http://www.w3.org/TR/2001/REC-SVG-20010904/DTD/svg10.dtd">
<svg version="1.0" xmlns="http://www.w3.org/2000/svg"
 width="700.000000pt" height="700.000000pt" viewBox="0 0 700.000000 700.000000"
 preserveAspectRatio="xMidYMid meet">
<metadata>
Created by potrace 1.11, written by Peter Selinger 2001-2013
</metadata>
<g transform="translate(0.000000,700.000000) scale(0.100000,-0.100000)"
fill="#000000" stroke="none">
<path d="M3380 6764 c-842 -42 -1575 -357 -2159 -928 -380 -373 -647 -795
-816 -1294 -169 -500 -213 -1065 -124 -1592 158 -930 725 -1761 1534 -2247
418 -251 882 -405 1370 -453 154 -16 476 -16 630 0 928 92 1758 564 2316 1316
343 462 561 1031 619 1619 26 254 13 605 -31 865 -158 930 -725 1761 -1534
2247 -417 251 -899 410 -1365 452 -137 12 -349 19 -440 15z m313 -1299 c378
-66 685 -296 852 -639 279 -571 52 -1255 -513 -1544 -340 -174 -724 -174
-1064 0 -303 155 -528 441 -602 767 -60 264 -29 535 89 777 165 340 471 571
844 638 103 19 289 19 394 1z m137 -2690 c728 -111 1360 -582 1676 -1249 24
-51 44 -96 44 -99 0 -3 -44 -45 -97 -92 -460 -410 -1007 -658 -1614 -731 -177
-21 -501 -21 -678 0 -607 73 -1154 321 -1614 731 -53 47 -97 89 -97 92 0 3 20
48 44 99 211 444 566 810 1003 1032 253 129 512 203 828 236 82 8 404 -4 505
-19z"/>
</g>
</svg>
